<?xml version="1.0" standalone="no"?>
<!DOCTYPE svg PUBLIC "-//W3C//DTD SVG 20010904//EN"
 "http://www.w3.org/TR/2001/REC-SVG-20010904/DTD/svg10.dtd">
<svg version="1.0" xmlns="http://www.w3.org/2000/svg"
 width="300.000000pt" height="300.000000pt" viewBox="0 0 300.000000 300.000000"
 preserveAspectRatio="xMidYMid meet">
<metadata>
Created by potrace 1.11, written by Peter Selinger 2001-2013
</metadata>
<g transform="translate(0.000000,300.000000) scale(0.100000,-0.100000)"
fill="#000000" stroke="none">
<path d="M1354 2746 c-19 -19 -34 -42 -34 -52 0 -16 -18 -23 -98 -42 -100 -25
-230 -80 -315 -134 l-48 -31 -46 23 c-83 42 -180 8 -246 -86 -42 -60 -46 -111
-12 -177 l27 -54 -30 -47 c-39 -60 -87 -181 -111 -276 -18 -73 -19 -74 -60
-88 -58 -19 -98 -63 -117 -128 -32 -112 20 -220 119 -245 38 -9 48 -16 53 -38
25 -113 92 -266 167 -375 53 -79 185 -210 264 -264 128 -87 277 -150 408 -173
39 -7 74 -16 79 -20 6 -5 4 -31 -3 -65 -8 -33 -9 -60 -4 -65 12 -12 244 -22
295 -14 48 8 45 24 -8 40 -45 13 -154 81 -154 95 0 6 27 10 61 10 121 0 365
67 455 125 26 17 34 11 34 -27 0 -33 47 -88 75 -88 8 0 42 11 75 25 33 14 67
25 77 25 31 1 165 58 189 81 29 27 32 79 7 101 -13 11 -48 17 -114 20 -53 3
-101 8 -108 12 -8 5 5 26 39 63 118 129 202 279 246 435 14 51 28 99 30 107 3
11 15 12 52 6 80 -13 104 -10 129 19 24 28 27 64 24 281 -1 108 -17 138 -74
143 -40 4 -61 -17 -77 -80 -6 -20 -19 -47 -30 -60 l-19 -23 -1 41 c0 22 -10
78 -21 125 -102 404 -427 712 -837 795 -89 18 -94 20 -107 51 -18 43 -61 63
-136 63 -56 0 -64 -3 -95 -34z m-11 -171 c27 -57 21 -104 -23 -197 -40 -80
-41 -86 -38 -171 2 -48 2 -87 0 -87 -2 0 -29 18 -60 40 -46 33 -75 44 -144 58
-48 10 -90 20 -93 23 -3 3 0 20 6 37 9 28 7 40 -22 99 -19 37 -35 71 -37 75
-4 8 108 71 178 98 52 21 182 58 206 59 6 1 18 -15 27 -34z m462 -6 c316 -106
564 -367 655 -689 23 -82 38 -230 24 -230 -5 0 -52 7 -104 15 -52 8 -117 15
-143 15 -27 0 -91 13 -143 30 -52 17 -137 44 -188 60 -52 17 -117 33 -143 36
-26 3 -63 7 -80 10 l-33 5 0 77 c0 42 -7 125 -14 185 -16 116 -42 185 -94 250
-28 35 -31 44 -25 83 4 34 2 44 -8 44 -19 1 -65 37 -57 45 4 4 32 -3 62 -15
30 -13 61 -20 69 -17 8 3 18 23 22 44 4 21 11 41 17 44 7 4 6 14 -2 29 -12 23
-12 23 41 16 30 -4 95 -21 144 -37z m-1001 -134 c20 -14 50 -32 66 -40 17 -9
30 -22 30 -29 0 -7 7 -19 15 -26 29 -24 17 -46 -40 -74 -30 -14 -55 -31 -55
-37 0 -16 27 -22 57 -11 24 8 31 5 53 -19 21 -24 39 -30 114 -43 71 -12 99
-22 130 -46 23 -16 62 -44 89 -62 43 -29 49 -37 72 -110 38 -120 33 -133 -26
-72 -18 20 -47 43 -63 51 -17 9 -65 49 -107 89 -81 77 -108 90 -163 80 -79
-15 -72 -73 8 -68 45 4 48 2 116 -64 39 -37 85 -77 104 -88 18 -12 56 -41 84
-66 l50 -46 -19 -34 c-10 -19 -18 -43 -19 -52 0 -27 -12 -22 -60 28 -25 26
-61 53 -80 61 -61 26 -227 132 -268 172 -38 37 -56 75 -82 170 -15 55 -54 96
-106 110 -122 35 -140 165 -32 231 44 27 88 25 132 -5z m657 -144 c16 -16 29
-38 30 -48 5 -153 9 -448 8 -553 -1 -127 0 -136 21 -155 20 -18 70 -105 70
-121 0 -3 -12 -4 -26 -1 -24 4 -25 2 -18 -22 4 -14 8 -44 8 -66 1 -40 1 -40
-37 -39 -48 2 -70 22 -96 90 -24 64 -27 97 -8 113 19 15 27 4 27 -39 0 -49 39
-124 67 -128 21 -3 21 -3 7 50 -17 66 -18 95 -2 100 9 3 3 16 -15 37 -15 18
-27 38 -28 44 -4 49 -12 494 -10 583 l2 112 -32 25 c-18 14 -29 29 -25 36 11
18 25 13 57 -18z m-773 -147 c42 -16 51 -30 77 -110 22 -70 64 -134 119 -180
l46 -38 -55 -17 c-31 -9 -84 -35 -118 -58 -35 -23 -67 -41 -71 -41 -4 0 -12
14 -18 31 -8 23 -23 36 -65 55 -31 13 -68 24 -84 24 l-28 0 20 73 c21 78 114
277 129 277 5 0 27 -7 48 -16z m2003 -520 c-6 -34 -11 -79 -11 -102 l0 -40
-82 5 c-60 4 -116 -1 -200 -16 -151 -27 -191 -26 -285 5 -43 14 -100 28 -128
31 -43 5 -60 15 -120 66 -72 62 -173 132 -207 142 -11 4 -18 14 -16 23 3 13
12 16 43 14 60 -5 193 -38 248 -61 27 -12 60 -21 73 -21 14 0 44 -10 67 -22
27 -14 72 -24 127 -29 47 -4 131 -13 188 -19 163 -17 202 3 263 135 l33 70 9
-60 c6 -40 5 -81 -2 -121z m-1606 102 c33 -15 80 -49 117 -85 34 -34 69 -63
79 -66 10 -3 21 -15 24 -26 4 -10 18 -33 32 -49 l25 -30 -34 0 c-18 0 -52 5
-75 10 -36 9 -59 5 -150 -21 -128 -36 -278 -49 -338 -29 -21 7 -64 28 -94 46
-64 39 -98 42 -160 14 -56 -26 -111 -26 -144 1 -50 38 -58 140 -15 194 23 29
82 47 158 48 75 0 101 -14 97 -56 -2 -31 -1 -32 51 -40 53 -9 54 -8 128 42 70
47 91 55 169 64 63 8 76 6 130 -17z m634 -121 c61 -37 106 -75 142 -117 29
-35 72 -83 96 -106 54 -54 63 -76 73 -178 9 -91 80 -328 115 -384 13 -20 34
-44 48 -52 32 -22 142 -41 184 -33 18 3 33 2 33 -2 0 -11 -118 -60 -176 -74
-27 -6 -62 -17 -77 -25 -54 -27 -62 -21 -75 57 -14 84 -23 102 -102 210 -62
87 -92 163 -105 264 -11 88 -19 100 -108 144 -137 69 -134 64 -142 219 -3 72
-4 132 -1 132 4 0 46 -25 95 -55z m-1041 -206 c122 -64 230 -65 441 -4 76 22
90 24 160 14 42 -6 77 -12 78 -13 2 -1 4 -81 5 -177 2 -161 1 -178 -20 -228
-33 -78 -36 -149 -14 -274 l19 -107 -36 6 c-214 36 -456 174 -596 342 -99 118
-194 303 -211 412 -6 35 -4 40 22 54 44 23 65 20 152 -25z m1434 9 l99 -31
122 18 c67 9 127 16 132 16 14 -2 8 -30 -25 -129 -44 -128 -113 -243 -213
-357 -24 -27 -39 -37 -45 -30 -19 19 -83 250 -91 330 -8 81 -24 124 -69 183
-13 17 -21 32 -17 32 4 0 52 -14 107 -32z m-474 -100 c7 -7 47 -30 90 -53 l77
-40 7 -63 c11 -97 44 -185 101 -265 69 -96 87 -124 87 -137 0 -14 -107 -66
-208 -100 -89 -29 -208 -50 -289 -50 l-46 0 7 68 c4 37 11 112 16 167 6 63 21
133 40 190 17 49 44 136 61 193 17 56 34 102 38 102 4 0 12 -5 19 -12z"/>
</g>
</svg>
